<svg xmlns="http://www.w3.org/2000/svg" xmlns:xlink="http://www.w3.org/1999/xlink" width="100" height="100" viewBox="0 0 100 100">
  <defs>
    <clipPath id="clip-bbl">
      <rect width="100" height="100"/>
    </clipPath>
  </defs>
  <g id="bbl" clip-path="url(#clip-bbl)">
    <rect width="100" height="100" fill="#039"/>
    <path id="Shape_1" data-name="Shape 1" d="M50.032,89.594S33.668,78.539,28.872,74.23s-7.5-7.871-7.743-12.8c0,0-.609-6.518.984-11.434s3.8-7.254,5.277-9.465S48.547,11.875,50.032,10.406c0,0,12.289,15.615,22.248,30,0,0,4.558,5.928,5.406,9.586.738,3.209,1.723,6.4,1.106,11.434-.454,3.814-.853,7.023-7.741,12.8,0,0-12.8,10.447-21.019,15.363M27.023,58.721a13.032,13.032,0,0,0,5.416,11.2c2.089,1.6,13.282,9.725,13.282,9.725V73.867c.234-1.975-1.731-4.193-1.731-4.193A168.52,168.52,0,0,1,28.872,50.359s-1.849,1.865-1.849,8.361m43.906-8.361A168.6,168.6,0,0,1,55.807,69.674s-1.969,2.219-1.729,4.193v5.773s11.193-8.121,13.279-9.725,5.415-4.66,5.415-11.2c0-6.5-1.843-8.361-1.843-8.361m-6.519,0a7.581,7.581,0,0,0,.738-9.082L50.032,20.492S36.992,37.707,34.651,41.277s-.866,6.5.982,9.217S50.032,67.7,50.032,67.7,60.6,55.168,64.411,50.359Z" fill="#fff"/>
  </g>
</svg>
