<svg xmlns="http://www.w3.org/2000/svg" xmlns:xlink="http://www.w3.org/1999/xlink" width="100" height="100" viewBox="0 0 100 100">
  <defs>
    <clipPath id="clip-scb">
      <rect width="100" height="100"/>
    </clipPath>
  </defs>
  <g id="scb" clip-path="url(#clip-scb)">
    <rect width="100" height="100" fill="#4c2786"/>
    <path id="scb-2" data-name="scb" d="M7.822,77.433c6.453,3.016,12.906,6.1,19.359,9.189a2.018,2.018,0,0,0,1.122.21h14.73c.842,0,.982-.281.982-1.052-.07-4.349,0-8.7,0-13.047,0-.281-.07-.421-.07-.842a10.291,10.291,0,0,1-.982.421c-4.489,1.964-9.119,3.577-14.169,2.946A9.019,9.019,0,0,1,23.6,72.944c-2.6-2.455-3.3-5.682-3.367-9.048a56.567,56.567,0,0,1,.561-8.417,29.715,29.715,0,0,1,2.6-9.469A69.318,69.318,0,0,1,39.035,24.615a77.988,77.988,0,0,1,7.014-5.471,1.375,1.375,0,0,1,1.754,0c1.894,1.4,3.858,2.665,5.611,4.138A69.826,69.826,0,0,1,65.2,36.82c3.437,4.98,6.313,10.311,7.435,16.343.842,4.419,1.4,8.908.631,13.4-1.122,6.032-4.7,8.628-10.1,8.768a21.231,21.231,0,0,1-7.786-1.4c-1.824-.631-3.647-1.4-5.471-2.1V85.429c0,.912.281,1.122,1.192,1.122,4.77-.07,9.469,0,14.239-.07a5.329,5.329,0,0,0,1.824-.421C73.4,83.114,79.648,80.1,85.82,77.152c1.263-.631,1.263-.561.912-1.964C83.225,61.44,79.788,47.762,76.281,34.014a3.286,3.286,0,0,0-.772-1.333c-1.4-1.4-2.876-2.736-4.279-4.068-2.736-2.525-5.471-5.05-8.277-7.575-3.718-3.367-7.365-6.664-11.083-10.1-1.4-1.333-2.946-2.665-4.349-4.068a.822.822,0,0,0-1.333.07c-.631.631-1.333,1.192-1.964,1.754-2.876,2.665-5.752,5.331-8.628,7.926-3.086,2.806-6.1,5.611-9.259,8.417l-6.734,6.1c-.842.842-1.894,1.543-2.245,2.876C13.924,47.692,10.487,61.44,6.98,75.118,6.84,76.591,6.98,77.082,7.822,77.433Z" transform="translate(3.068 3.438)" fill="#ffad02"/>
  </g>
</svg>
